<?xml version="1.0" encoding="UTF-8" standalone="no"?>
<!-- Created with Inkscape (http://www.inkscape.org/) -->

<svg
   xmlns:dc="http://purl.org/dc/elements/1.1/"
   xmlns:cc="http://creativecommons.org/ns#"
   xmlns:rdf="http://www.w3.org/1999/02/22-rdf-syntax-ns#"
   xmlns:svg="http://www.w3.org/2000/svg"
   xmlns="http://www.w3.org/2000/svg"
   xmlns:sodipodi="http://sodipodi.sourceforge.net/DTD/sodipodi-0.dtd"
   xmlns:inkscape="http://www.inkscape.org/namespaces/inkscape"
   width="200"
   height="76"
   id="svg2"
   version="1.1"
   inkscape:version="0.48.4 r9939"
   sodipodi:docname="django.svg">
  <defs
     id="defs4" />
  <sodipodi:namedview
     id="base"
     pagecolor="#ffffff"
     bordercolor="#666666"
     borderopacity="1.0"
     inkscape:pageopacity="0.0"
     inkscape:pageshadow="2"
     inkscape:zoom="0.98994949"
     inkscape:cx="137.58059"
     inkscape:cy="99.046332"
     inkscape:document-units="px"
     inkscape:current-layer="layer1"
     showgrid="false"
     inkscape:window-width="1600"
     inkscape:window-height="817"
     inkscape:window-x="0"
     inkscape:window-y="27"
     inkscape:window-maximized="1" />
  <metadata
     id="metadata7">
    <rdf:RDF>
      <cc:Work
         rdf:about="">
        <dc:format>image/svg+xml</dc:format>
        <dc:type
           rdf:resource="http://purl.org/dc/dcmitype/StillImage" />
        <dc:title />
      </cc:Work>
    </rdf:RDF>
  </metadata>
  <g
     inkscape:label="Layer 1"
     inkscape:groupmode="layer"
     id="layer1"
     transform="translate(0,-976.36218)">
    <path
       style="fill:#ffffff"
       d="m 134.42999,1045.8604 c -2.28641,-0.1891 -5.07759,-0.7548 -6.94039,-1.4066 l -1.4355,-0.5022 -0.0485,-4.7798 c -0.0543,-5.3535 -0.1248,-5.1077 1.26063,-4.401 2.711,1.3831 7.28809,2.2785 10.8055,2.1138 5.20928,-0.2439 7.8148,-2.0975 8.6227,-6.1344 0.21155,-1.0571 0.32825,-3.036 0.18733,-3.177 -0.0459,-0.046 -0.61896,0.1112 -1.27363,0.3488 -2.60393,0.9452 -6.90332,1.0699 -9.90351,0.2874 -4.2959,-1.1205 -7.82051,-4.2173 -9.37848,-8.2402 -1.45081,-3.7462 -1.61859,-8.5806 -0.43904,-12.651 1.74689,-6.0281 6.51352,-10.17321 13.76044,-11.96609 5.39416,-1.33451 12.93388,-1.37616 20.34114,-0.11236 2.43956,0.41623 2.75551,0.50521 2.75551,0.77594 0,0.18281 -3.22477,7.06581 -3.38594,7.22691 -0.0451,0.045 -0.59107,0.087 -1.21333,0.093 l -1.13139,0.011 0.0885,5.4626 c 0.18768,11.5794 0.0992,19.6936 -0.23824,21.8634 -0.74033,4.7593 -1.7706,7.0956 -4.31638,9.7877 -2.04386,2.1614 -4.12192,3.454 -7.01026,4.3612 -2.95002,0.9264 -7.41669,1.3441 -11.10716,1.0389 z m 11.19179,-25.9536 c 0.64743,-0.1527 1.23874,-0.3768 1.31404,-0.4981 0.144,-0.232 0.0278,-11.9432 -0.14712,-14.833 l -0.102,-1.6843 -1.4852,0 c -4.55944,0.01 -7.96178,2.3299 -8.94468,6.1036 -0.36246,1.3915 -0.36613,4.5904 -0.006,5.9697 0.68602,2.6339 2.27217,4.3371 4.63116,4.9731 1.15681,0.312 3.33981,0.2964 4.74065,-0.034 z m -107.773711,20.8877 c -2.445905,-1.1718 -4.478513,-2.2248 -4.516907,-2.34 -0.0384,-0.1152 0.610821,-0.5633 1.4427,-0.9958 4.250064,-2.2095 6.637512,-5.1123 7.590865,-9.229 0.723991,-3.1264 0.79318,-4.6209 0.882218,-19.0563 0.06339,-10.27652 0.142348,-14.05627 0.29569,-14.15433 0.375735,-0.24025 9.851281,-0.16597 10.096406,0.0792 0.278892,0.27889 0.305827,26.42403 0.03129,30.37173 -0.441907,6.3545 -1.812798,10.1984 -4.788403,13.4265 -1.365004,1.4809 -5.308393,4.0664 -6.163319,4.0411 -0.232893,-0.011 -2.424637,-0.9713 -4.870541,-2.1431 z m 136.549501,-11.8574 c -6.93584,-1.4834 -11.33737,-6.2641 -12.38899,-13.4561 -0.33507,-2.2915 -0.13743,-6.9927 0.37596,-8.9431 1.64888,-6.2642 5.5514,-10.24785 11.63445,-11.87637 1.03197,-0.27626 2.16077,-0.39156 4.47548,-0.45715 2.68688,-0.0761 3.34719,-0.0358 5.00284,0.30563 6.29695,1.29853 10.42403,5.23885 12.0212,11.47719 0.97109,3.793 0.81639,8.6477 -0.39456,12.3815 -1.83406,5.6551 -6.2825,9.49 -12.34149,10.6394 -2.10627,0.3995 -6.35297,0.3637 -8.38489,-0.071 z m 7.02506,-8.6356 c 2.545,-1.1851 3.8937,-4.1566 3.8937,-8.579 0,-4.3009 -1.34947,-7.3951 -3.73247,-8.5584 -1.01454,-0.4953 -3.40186,-0.5919 -4.62082,-0.187 -2.74945,0.9132 -4.38632,4.1768 -4.38632,8.7454 0,4.0111 1.19748,6.9431 3.38872,8.2974 0.90598,0.5599 1.44767,0.683 3.07529,0.6984 1.16942,0.011 1.63912,-0.071 2.3819,-0.4168 z m -113.453528,8.6204 c -4.663795,-0.4543 -7.761611,-2.1493 -9.072877,-4.9646 -0.658864,-1.4146 -0.91624,-2.7461 -0.921878,-4.7693 -0.0089,-3.1899 0.70999,-5.1272 2.606499,-7.0244 2.488539,-2.4893 6.259939,-3.8659 12.871428,-4.698 l 2.528552,-0.3182 0,-1.7496 c 0,-1.5869 -0.03987,-1.7921 -0.428639,-2.2054 -1.271477,-1.352 -6.532762,-1.019 -11.562632,0.7318 -1.005384,0.35 -2.209703,0.8297 -2.676264,1.0661 -0.636677,0.3227 -0.900252,0.3779 -1.056581,0.2216 -0.1426,-0.1426 -0.20829,-1.3699 -0.20829,-3.8916 0,-3.02332 0.0487,-3.73199 0.271811,-3.9551 0.420483,-0.42049 3.794897,-1.67108 5.919068,-2.19369 4.623876,-1.13758 9.509004,-1.27613 13.059081,-0.37036 2.506718,0.63957 4.496939,2.07583 5.431176,3.91945 0.931421,1.8381 0.979555,2.6385 0.986446,16.4038 0.0059,11.9298 -0.01269,12.6938 -0.312295,12.7824 -0.473911,0.1402 -5.079557,0.6305 -7.784118,0.8288 -3.810934,0.2793 -7.887052,0.3581 -9.650487,0.1863 z m 6.022691,-7.4758 c 1.093969,-0.1101 2.132426,-0.2768 2.307682,-0.3706 0.285264,-0.1525 0.318648,-0.512 0.318648,-3.4309 0,-2.0314 -0.07039,-3.3038 -0.186755,-3.3757 -0.272296,-0.1683 -4.062698,0.4058 -5.548911,0.8404 -2.473813,0.7236 -3.366738,1.6685 -3.367885,3.5641 -5.47e-4,0.9463 0.07441,1.2133 0.47417,1.6883 1.012564,1.2034 2.37465,1.4495 6.003051,1.0844 z m -54.138281,7.3023 c -8.424069,-0.8913 -13.6885096,-4.7897 -15.3416761,-11.3607 -1.7746902,-7.0542 0.080363,-14.455 4.6827708,-18.6822 3.5918183,-3.299 9.5737833,-5.06119 14.8920983,-4.38695 0.901318,0.11426 1.802638,0.22581 2.00293,0.2479 0.35797,0.0395 0.365719,-0.0947 0.455212,-7.88054 l 0.09104,-7.92068 5.189413,0 5.18941,0 0.04619,24.25597 c 0.04373,22.9631 0.02916,24.2648 -0.273127,24.4206 -0.36217,0.1865 -4.412085,0.8499 -6.874358,1.1261 -2.331063,0.2614 -8.285738,0.3683 -10.059901,0.1805 z m 6.372687,-8.6536 c 0.296922,-0.1177 0.318648,-0.6884 0.318648,-8.3694 0,-6.721 -0.04565,-8.281 -0.247207,-8.4483 -0.494881,-0.4107 -3.105042,-0.6397 -4.70801,-0.413 -4.428381,0.6263 -6.880285,3.723 -6.880285,8.6898 0,2.1003 0.231659,3.3275 0.896213,4.7475 0.925001,1.9767 2.617277,3.266 5.003657,3.8123 1.124993,0.2575 4.952082,0.2445 5.616984,-0.019 z m 64.79789,8.2232 c -0.149776,-0.1806 -0.192793,-4.505 -0.158858,-15.97 l 0.04654,-15.72247 0.811009,-0.2348 c 3.341958,-0.96756 8.31511,-1.78258 12.68729,-2.07925 5.03943,-0.34196 8.91479,0.18232 11.9025,1.61024 1.78875,0.8549 3.60092,2.62886 4.37476,4.28248 1.12944,2.4136 1.13692,2.5099 1.2207,15.7253 0.0697,10.9937 0.0503,12.0625 -0.2234,12.3362 -0.26306,0.263 -0.88657,0.2998 -5.09894,0.2998 -4.12016,0 -4.83972,-0.04 -5.08536,-0.2862 -0.25373,-0.2537 -0.28614,-1.518 -0.28614,-11.1657 0,-9.5662 -0.0358,-10.9846 -0.29595,-11.7483 -0.38858,-1.1405 -1.25371,-1.9842 -2.36536,-2.3068 -1.72707,-0.5012 -6.23026,-0.1716 -6.9075,0.5056 -0.22505,0.2251 -0.26374,2.0624 -0.26374,12.5221 0,11.0099 -0.0293,12.2694 -0.28803,12.3687 -0.15841,0.061 -2.442635,0.1106 -5.076066,0.1106 -3.813451,0 -4.829864,-0.051 -4.993452,-0.2475 z m -47.727457,-44.09023 0,-5.37708 5.234934,0.0483 5.234934,0.0483 0,5.28046 0,5.28046 -5.234934,0.0483 -5.234934,0.0483 0,-5.37708 z"
       id="path2996"
       inkscape:connector-curvature="0" />
  </g>
</svg>
