<?xml version="1.0" encoding="UTF-8" standalone="no"?>
<svg
   xmlns:dc="http://purl.org/dc/elements/1.1/"
   xmlns:cc="http://creativecommons.org/ns#"
   xmlns:rdf="http://www.w3.org/1999/02/22-rdf-syntax-ns#"
   xmlns:svg="http://www.w3.org/2000/svg"
   xmlns="http://www.w3.org/2000/svg"
   xmlns:sodipodi="http://sodipodi.sourceforge.net/DTD/sodipodi-0.dtd"
   xmlns:inkscape="http://www.inkscape.org/namespaces/inkscape"
   version="1.1"
   height="128.25"
   width="430"
   id="svg3203"
   inkscape:version="0.48.4 r9939"
   sodipodi:docname="jquery.svg">
  <metadata
     id="metadata3341">
    <rdf:RDF>
      <cc:Work
         rdf:about="">
        <dc:format>image/svg+xml</dc:format>
        <dc:type
           rdf:resource="http://purl.org/dc/dcmitype/StillImage" />
      </cc:Work>
    </rdf:RDF>
  </metadata>
  <defs
     id="defs3339" />
  <sodipodi:namedview
     pagecolor="#ffffff"
     bordercolor="#666666"
     borderopacity="1"
     objecttolerance="10"
     gridtolerance="10"
     guidetolerance="10"
     inkscape:pageopacity="0"
     inkscape:pageshadow="2"
     inkscape:window-width="640"
     inkscape:window-height="480"
     id="namedview3337"
     showgrid="false"
     inkscape:zoom="0.45254834"
     inkscape:cx="319.83269"
     inkscape:cy="-74.521183"
     inkscape:window-x="0"
     inkscape:window-y="27"
     inkscape:window-maximized="0"
     inkscape:current-layer="svg3203" />
  <path
     d="m 120.04369,55.009835 0.001,-0.005 c 0,0 -3.352,11.88 -3.352,11.88 0,0 3.3508,-11.875 3.3508,-11.875 z"
     id="path3205"
     style="fill:#ffffff;fill-rule:nonzero"
     inkscape:connector-curvature="0" />
  <path
     d="m 137.28369,80.800835 c 0,0 -3.6938,-0.022 -3.6938,-0.022 0,0 3.6938,0.022 3.6938,0.022 z"
     id="path3207"
     style="fill:#ffffff;fill-rule:nonzero"
     inkscape:connector-curvature="0" />
  <path
     d="m 136.33369,98.541835 h 0.004 c 0,0 -22.131,0.0806 -22.131,0.0806 0,0 22.128,-0.0806 22.128,-0.0806 z"
     id="path3209"
     style="fill:#ffffff;fill-rule:nonzero"
     inkscape:connector-curvature="0" />
  <path
     d="m 140.97369,80.822835 c 0,0 -3.6951,-0.022 -3.6951,-0.022 0,0 3.6951,0.022 3.6951,0.022 z"
     id="path3211"
     style="fill:#ffffff;fill-rule:nonzero"
     inkscape:connector-curvature="0" />
  <path
     d="m 138.27369,97.033835 c 0,0 3.855,-14.702 3.855,-14.702 0,0 -3.855,14.705 -3.855,14.705 v -0.002 z"
     id="path3213"
     style="fill:#ffffff;fill-rule:nonzero"
     inkscape:connector-curvature="0" />
  <path
     d="m 219.75369,29.328835 c 0,0 -7.1814,33.76 -7.1814,33.76 0,0 7.1814,-33.76 7.1814,-33.76 z"
     id="path3215"
     style="fill:#ffffff;fill-rule:nonzero"
     inkscape:connector-curvature="0" />
  <path
     d="m 201.29369,29.328835 c 0,0 -5.4517,25.22 -5.4517,25.22 0,0 5.4517,-25.222 5.4517,-25.222 v 0.002 z"
     id="path3217"
     style="fill:#ffffff;fill-rule:nonzero"
     inkscape:connector-curvature="0" />
  <path
     d="m 218.52369,27.809835 h -15.356 c -0.85205,0 -1.698,0.68359 -1.8799,1.5161 0,0 -5.4516,25.222 -5.4516,25.222 0,0 -5.4517,25.222 -5.4517,25.222 -0.18066,0.83251 -1.0254,1.5137 -1.8774,1.5137 h -9.3176 -1.5515 c -10.753,0 -9.5093,-7.4365 -7.3071,-17.627 0.022,-0.1025 0.044,-0.20263 0.0659,-0.30761 0,0 0.24169,-1.2842 0.24169,-1.2842 0.0146,-0.083 0.0317,-0.16603 0.0451,-0.2417 0,0 0.49072,-2.6148 0.49072,-2.6148 0,0 0.52612,-2.8027 0.52612,-2.8027 0.15992,-0.84473 0.40283,-2.0801 0.56153,-2.8564 0,0 2.478,-12.109 2.478,-12.109 0,0 2.4805,-12.109 2.4805,-12.109 0.1709,-0.83496 -0.38819,-1.521 -1.2402,-1.521 h -15.762 c -0.85206,0 -1.6956,0.68604 -1.8701,1.5186 0,0 -3.3887,16.079 -3.3887,16.079 0,0 -3.3887,16.077 -3.3887,16.077 -0.003,0.007 -0.004,0.0171 -0.005,0.0244 0,0 -0.31494,1.4942 -0.31494,1.4942 -3.9038,17.822 -2.8686,34.817 18.347,35.349 0.3467,0.01 0.61525,0.0125 0.61525,0.0125 h 33.302 c 0.85206,0 1.6956,-0.6836 1.8738,-1.5186 0,0 7.1814,-33.757 7.1814,-33.757 0,0 7.1814,-33.76 7.1814,-33.76 0.17701,-0.83497 -0.37598,-1.5186 -1.228,-1.5186 z"
     id="path3219"
     style="fill:#ffffff;fill-rule:nonzero"
     inkscape:connector-curvature="0" />
  <path
     d="m 279.78369,81.459835 c 0.85327,0 1.4111,0.6836 1.2402,1.5186 0,0 -1.4917,7.2876 -1.4917,7.2876"
     id="path3221"
     style="fill:#ffffff;fill-rule:nonzero"
     inkscape:connector-curvature="0" />
  <path
     d="m 278.04369,97.557835 c 0,0 1.4905,-7.2925 1.4905,-7.2925 0,0 -1.4917,7.2949 -1.4917,7.2949 0,-0.002 9.9e-4,-0.002 9.9e-4,-0.002 z"
     id="path3223"
     style="fill:#ffffff;fill-rule:nonzero"
     inkscape:connector-curvature="0" />
  <path
     d="m 276.17369,99.091835 c 0.002,0 0.005,-0.002 0.007,-0.002 -4.519,0.0366 -18.099,0.13916 -28.306,0.13916 12.422,0 28.298,-0.13672 28.298,-0.13672 z"
     id="path3225"
     style="fill:#ffffff;fill-rule:nonzero"
     inkscape:connector-curvature="0" />
  <path
     d="m 238.71369,72.072835 c -0.0125,-0.79835 0.896,-2.1729 1.7493,-2.1729 0,0 -1.9177,-0.0317 -1.9177,-0.0317 -0.86426,8.6914 0.16845,2.2046 0.16845,2.2046 z"
     id="path3227"
     style="fill:#ffffff;fill-rule:nonzero"
     inkscape:connector-curvature="0" />
  <path
     d="m 249.27369,99.225835 c -0.0976,0 -0.19775,0 -0.29542,0.002 0.0976,-0.002 0.19777,-0.002 0.29542,-0.002 z"
     id="path3229"
     style="fill:#ffffff;fill-rule:nonzero"
     inkscape:connector-curvature="0" />
  <path
     d="m 279.78369,81.459835 c 0.85327,0 1.4111,0.6836 1.2402,1.5186 0,0 -1.4917,7.2876 -1.4917,7.2876 0,0 -0.24293,1.189 -0.24293,1.189"
     id="path3231"
     style="fill:#ffffff;fill-rule:nonzero"
     inkscape:connector-curvature="0" />
  <path
     d="m 256.54369,99.208835 h -0.0623 0.0623 z"
     id="path3233"
     style="fill:#ffffff;fill-rule:nonzero"
     inkscape:connector-curvature="0" />
  <path
     d="m 252.77369,99.220835 h -0.21852 0.21852 z"
     id="path3235"
     style="fill:#ffffff;fill-rule:nonzero"
     inkscape:connector-curvature="0" />
  <path
     d="m 251.62369,99.223835 c -0.12201,0 -0.2417,0 -0.36134,0.002 0.11963,-0.002 0.23927,-0.002 0.36134,-0.002 z"
     id="path3237"
     style="fill:#ffffff;fill-rule:nonzero"
     inkscape:connector-curvature="0" />
  <path
     d="m 250.45369,99.225835 h -0.31737 0.31737 z"
     id="path3239"
     style="fill:#ffffff;fill-rule:nonzero"
     inkscape:connector-curvature="0" />
  <path
     d="m 252.55369,99.220835 c -0.31127,0 -0.62255,0.002 -0.93016,0.002 0.30761,0 0.61889,-0.002 0.93016,-0.002 z"
     id="path3241"
     style="fill:#ffffff;fill-rule:nonzero"
     inkscape:connector-curvature="0" />
  <path
     d="m 256.48369,99.208835 c -1.2427,0.005 -2.4829,0.01 -3.7048,0.0125 1.2219,-0.002 2.4634,-0.007 3.7048,-0.0125 z"
     id="path3243"
     style="fill:#ffffff;fill-rule:nonzero"
     inkscape:connector-curvature="0" />
  <path
     d="m 276.18369,99.088835 h 10e-4 c -3.3118,0.0269 -11.49,0.0879 -19.646,0.11963 8.1518,-0.0292 16.332,-0.0927 19.645,-0.11963 z"
     id="path3245"
     style="fill:#ffffff;fill-rule:nonzero"
     inkscape:connector-curvature="0" />
  <path
     d="m 278.04369,97.560835 c 0,0 1.2488,-6.106 1.2488,-6.106 0,0 -1.25,6.1108 -1.25,6.1108 0,-0.002 0.001,-0.002 0.001,-0.005 z"
     id="path3247"
     style="fill:#ffffff;fill-rule:nonzero"
     inkscape:connector-curvature="0" />
  <path
     d="m 251.26369,99.225835 h -0.81054 0.81054 z"
     id="path3249"
     style="fill:#ffffff;fill-rule:nonzero"
     inkscape:connector-curvature="0" />
  <path
     d="m 248.97369,99.227835 h -1.0962 1.0962 z"
     id="path3251"
     style="fill:#ffffff;fill-rule:nonzero"
     inkscape:connector-curvature="0" />
  <path
     d="m 250.13369,99.225835 h -0.86426 0.86426 z"
     id="path3253"
     style="fill:#ffffff;fill-rule:nonzero"
     inkscape:connector-curvature="0" />
  <path
     d="m 25.503691,72.255835 c 0,0 2.3852,-10.574 2.3852,-10.574 0,0 -2.727,12.087 -2.727,12.087 0,0 -2.6172,12.312 -2.6172,12.312 0,0 2.2937,-10.793 2.2937,-10.793 0.177,-0.83497 0.4773,-2.1997 0.66529,-3.0322 z"
     id="path3255"
     style="fill:#ffffff;fill-rule:nonzero"
     inkscape:connector-curvature="0" />
  <path
     d="m 54.053691,27.631835 h -16.864 c -0.85326,0 -1.7041,0.68115 -1.8945,1.5112 0,0 -1.5991,7.0581 -1.5991,7.0581 0,0 -1.5991,7.0606 -1.5991,7.0606 -0.18799,0.83008 0.35523,1.5112 1.2085,1.5112 h 16.995 c 0.85205,0 1.6992,-0.68115 1.8823,-1.5137 0,0 1.5454,-7.0581 1.5454,-7.0581 0,0 1.5454,-7.0532 1.5454,-7.0532 v -0.002 c 0.18189,-0.83253 -0.36621,-1.5137 -1.2195,-1.5137 z"
     id="path3257"
     style="fill:#ffffff;fill-rule:nonzero"
     inkscape:connector-curvature="0" />
  <path
     d="m 50.383691,51.110835 v -0.002 c 0,0 -4.9463,22.883 -4.9463,22.883 0,0 4.9463,-22.881 4.9463,-22.881 z"
     id="path3259"
     style="fill:#ffffff;fill-rule:nonzero"
     inkscape:connector-curvature="0" />
  <path
     d="m 1.3936912,126.92883 c 0,0 8.501,0.10988 13.9049998,0.10988 -4.1052,0 -10.8849998,-0.0756 -13.9119998,-0.11225 0.003,0 0.005,0.002 0.008,0.002 z"
     id="path3261"
     style="fill:#ffffff;fill-rule:nonzero"
     inkscape:connector-curvature="0" />
  <path
     d="m 30.273691,51.107835 c 0,0 -2.3877,10.574 -2.3877,10.574 0,0 2.3877,-10.574 2.3877,-10.574 z"
     id="path3263"
     style="fill:#ffffff;fill-rule:nonzero"
     inkscape:connector-curvature="0" />
  <path
     d="m 49.163691,49.594835 h -16.997 c -0.85205,0 -1.7041,0.68117 -1.8921,1.5137 0,0 -2.3877,10.574 -2.3877,10.574 0,0 -2.3852,10.574 -2.3852,10.574 -0.18799,0.83253 -0.48829,2.1973 -0.66529,3.0322 0,0 -2.2937,10.793 -2.2937,10.793 0,0 -2.2925,10.793 -2.2925,10.793 -0.17822,0.83252 -0.54443,2.1777 -0.81787,2.9858 0,0 -3.175,9.448195 -8.5132,9.340795 -0.22705,-0.005 -0.448,-0.007 -0.6665,-0.0125 -2.5866998,-0.0489 -4.6190998,-0.0855 -4.6190998,-0.0855 h -0.004 c -0.85083,-0.0125 -1.7066,0.65185 -1.9055,1.4795 0,0 -1.7627,7.4097 -1.7627,7.4097 0,0 -1.76029999,7.4072 -1.76029999,7.4072 -0.19775,0.82762 0.33692,1.5112 1.18409999,1.5259 3.0274,0.0366 9.8070998,0.11225 13.9119998,0.11225 13.334,0 20.363,-7.3877 24.869,-28.646995 0,0 5.2734,-24.399 5.2734,-24.399 0,0 4.9463,-22.883 4.9463,-22.883 0.17945,-0.83251 -0.3711,-1.5137 -1.2232,-1.5137 z"
     id="path3265"
     style="fill:#ffffff;fill-rule:nonzero"
     inkscape:connector-curvature="0" />
  <path
     d="m 290.61369,98.363835 c -0.85205,0 -1.405,-0.6836 -1.2256,-1.5186 0,0 12.786,-59.89 12.786,-59.89"
     id="path3267"
     style="fill:#ffffff;fill-rule:nonzero"
     inkscape:connector-curvature="0" />
  <path
     d="m 308.38369,96.842835 c 0,0 5.1709,-25.562 5.1709,-25.562 0,0 -5.1709,25.562 -5.1709,25.562 z"
     id="path3269"
     style="fill:#ffffff;fill-rule:nonzero"
     inkscape:connector-curvature="0" />
  <path
     d="m 289.57369,97.604835 c -0.10375,-0.41749 -0.0428,-1.4404 0.13793,-2.2754 0,0 6.0681,-28.428 6.0681,-28.428 0,0 -6.3928,29.944 -6.3928,29.944 -0.17944,0.83495 0.37354,1.5186 1.2256,1.5186 h 1.5528 c -0.85328,0 -2.489,-0.3418 -2.5916,-0.75927 z"
     id="path3271"
     style="fill:#ffffff;fill-rule:nonzero"
     inkscape:connector-curvature="0" />
  <path
     d="m 307.37369,98.021835 c -0.46388,0.18799 -1.543,0.3418 -2.3962,0.3418 h 1.5527 c 0.85205,0 1.6894,-0.6836 1.8579,-1.521 0,0 0.30761,-1.5186 0.30761,-1.5186 -0.16967,0.83496 -0.85692,2.5098 -1.322,2.6978 z"
     id="path3273"
     style="fill:#ffffff;fill-rule:nonzero"
     inkscape:connector-curvature="0" />
  <path
     d="m 310.97369,84.061835 c 0,0 2.2827,-11.282 2.2827,-11.282 -0.001,0.007 -0.002,0.0171 -0.004,0.022 0,0 -2.279,11.26 -2.279,11.26 z"
     id="path3275"
     style="fill:#ffffff;fill-rule:nonzero"
     inkscape:connector-curvature="0" />
  <path
     d="m 361.42369,40.966835 c 0,0 0.70434,2.9102 0.70434,2.9102 0.1941,0.83251 -0.34424,1.5088 -1.1951,1.5112"
     id="path3277"
     style="fill:#ffffff;fill-rule:nonzero"
     inkscape:connector-curvature="0" />
  <path
     d="m 308.69369,95.324835 c 0,0 2.2766,-11.262 2.2766,-11.262 0,0 -2.2766,11.262 -2.2766,11.262 z"
     id="path3279"
     style="fill:#ffffff;fill-rule:nonzero"
     inkscape:connector-curvature="0" />
  <path
     d="m 360.72369,37.985835 c 0,0 0.69703,2.981 0.69703,2.981 0,0 -0.69703,-2.981 -0.69703,-2.981 z"
     id="path3281"
     style="fill:#ffffff;fill-rule:nonzero"
     inkscape:connector-curvature="0" />
  <path
     d="m 313.25369,72.780835 c 0.16969,-0.83496 0.45045,-2.1875 0.62746,-3.0151 0,0 2.4377,-11.421 2.4377,-11.421 0,0 -2.7612,12.937 -2.7612,12.937 0,0 -0.30397,1.499 -0.30397,1.499 z"
     id="path3283"
     style="fill:#ffffff;fill-rule:nonzero"
     inkscape:connector-curvature="0" />
  <path
     d="m 302.38369,35.973835 c -0.16967,0.80567 -0.38696,1.8237 -0.53101,2.4976 0,0 -6.0681,28.43 -6.0681,28.43 0,0 6.3928,-29.946 6.3928,-29.946 0,0 0.2063,-0.98145 0.2063,-0.98145 z"
     id="path3285"
     style="fill:#ffffff;fill-rule:nonzero"
     inkscape:connector-curvature="0" />
  <path
     d="m 362.12369,43.876835 c 0,0 -0.70434,-2.9102 -0.70434,-2.9102 0,0 -0.69703,-2.981 -0.69703,-2.981 0,0 -0.35278,-1.5088 -0.35278,-1.5088 -1.3806,-5.3638 -5.4334,-8.4595 -14.233,-8.4595 0,0 -13.7,-0.0146 -13.7,-0.0146 0,0 -12.617,-0.0146 -12.617,-0.0146 h -1.0828 -13.114 c -0.85205,0 -1.6956,0.68115 -1.8713,1.5161 h -10e-4 c 0,0 -0.62743,2.9663 -0.62743,2.9663 0,0 -0.74096,3.5034 -0.74096,3.5034 0,0 -0.2063,0.98145 -0.2063,0.98145 0,0 -6.3928,29.946 -6.3928,29.946 0,0 -6.0681,28.428 -6.0681,28.428 -0.18065,0.83496 -0.24169,1.8579 -0.13792,2.2754 0.1025,0.41747 1.7383,0.75927 2.5915,0.75927 h 12.808 c 0.85327,0 1.9324,-0.15381 2.3962,-0.3418 0.46508,-0.18799 1.1523,-1.8628 1.322,-2.6978 0,0 2.2766,-11.262 2.2766,-11.262 0,0 2.279,-11.26 2.279,-11.26 0.001,-0.005 0.002,-0.0146 0.004,-0.022 0,0 0.30396,-1.499 0.30396,-1.499 0,0 2.7612,-12.937 2.7612,-12.937 0,0 2.439,-11.426 2.439,-11.426 0.18068,-0.83007 1.0205,-1.5088 1.8713,-1.5112 0,0 40.3,-0.0195 40.3,-0.0195 0.85083,-0.002 1.3892,-0.67872 1.1951,-1.5112 z"
     id="path3287"
     style="fill:#ffffff;fill-rule:nonzero"
     inkscape:connector-curvature="0" />
  <path
     d="m 414.00369,17.563235 c -0.85326,0.006 -2.2485,0.0113 -3.1018,0.0113 h -12.899 c -0.85328,0 -1.9458,0.57618 -2.4268,1.2805 0,0 -28.523,41.787 -28.523,41.787 -0.48218,0.70557 -1.0315,0.60059 -1.2207,-0.22949 0,0 -2.0984,-9.2065 -2.0984,-9.2065 -0.18921,-0.83252 -1.0437,-1.5112 -1.8958,-1.5112 h -18.337 c -0.85327,0 -1.3586,0.66895 -1.1255,1.4893 0,0 8.2166,28.784 8.2166,28.784 0.23437,0.82032 0.25147,2.168 0.0403,2.9932 0,0 -3.5815,13.931 -3.5815,13.931 -0.2124,0.82764 0.3125,1.5039 1.1658,1.5039 h 18.123 c 0.85205,0 1.7236,-0.67627 1.9348,-1.5039 0,0 3.5828,-13.931 3.5828,-13.931 0.21119,-0.82519 0.80445,-2.0605 1.3184,-2.7417 0,0 46.306,-61.459 46.306,-61.459 0.51393,-0.68115 0.2356,-1.2354 -0.61645,-1.2292 0,0 -4.8608,0.0317 -4.8608,0.0317 z"
     id="path3289"
     style="fill:#ffffff;fill-rule:nonzero"
     inkscape:connector-curvature="0" />
  <path
     d="m 268.32369,53.612835 c 0,0 -10e-4,-0.0171 -10e-4,-0.0171 -0.10737,0.92528 -0.96069,1.604 -1.8128,1.604 h -23.248 c -0.80323,0 -1.2122,-0.54688 -1.0938,-1.2207 0.007,-0.0195 0.01,-0.0366 0.022,-0.0537 0,0 -0.008,0.002 -0.0146,0.007 0.005,-0.0269 0.005,-0.0512 0.0125,-0.0781 0,0 0.044,-0.16358 0.10625,-0.39552 2.2204,-5.9033 6.7432,-9.7778 15.243,-9.7778 9.5691,0 11.437,4.6753 10.787,9.9316 z m -6.8201,-26.834 c -29.841,0 -36.912,18.113 -40.879,36.394 -3.9673,18.633 -3.6255,36.055 27.253,36.055 h 1.0962 c 0.0976,-0.002 0.19777,-0.002 0.29542,-0.002 h 0.86426 0.31737 0.81055 c 0.11963,-0.002 0.23927,-0.002 0.36133,-0.002 0.30762,0 0.6189,-0.002 0.93017,-0.002 h 0.21852 c 1.2219,-0.002 2.4622,-0.008 3.7048,-0.0125 h 0.0623 c 8.1555,-0.0317 16.334,-0.0927 19.647,-0.11962 0.84717,-0.0125 1.676,-0.6958 1.8506,-1.5234 0,0 1.25,-6.1108 1.25,-6.1108 0,0 0.24293,-1.189 0.24293,-1.189 0,0 1.4917,-7.2876 1.4917,-7.2876 0.1709,-0.83496 -0.38696,-1.5186 -1.2402,-1.5186 h -27.761 c -11.041,0 -14.32,-2.9346 -13.112,-11.56 h 44.377 c 0,0 -0.004,0.005 -0.004,0.005 0.0113,0 0.0208,-0.005 0.0305,-0.005 0.70556,-0.0125 1.3574,-0.49804 1.6162,-1.145 0.0489,-0.1245 0.0904,-0.25391 0.10737,-0.38818 0,0 -0.005,0.005 -0.005,0.005 6.5894,-24.854 4.6997,-41.592 -23.528,-41.592 z"
     id="path3291"
     style="fill:#ffffff;fill-rule:nonzero"
     inkscape:connector-curvature="0" />
  <path
     d="m 120.46369,53.517835 c 0,0 -0.41993,1.4868 -0.41993,1.4868 0,0.005 -0.001,0.005 -0.001,0.005 0,0 -3.3508,11.875 -3.3508,11.875 0,0 -3.3496,11.873 -3.3496,11.873 -0.23193,0.82031 -1.1182,1.4917 -1.9727,1.4917 H 93.633661 c -13.453,0 -16.729,-10.522 -13.453,-26.042 3.2752,-15.874 9.6973,-25.742 22.937999,-26.741 18.094,-1.3648 21.714,11.362 17.345,26.052 z m 12.163,25.818 c 0,0 8.3618,-20.303 10.261,-32.031 2.59,-15.699 -5.27,-38.4660002 -35.63,-38.4660002 -30.186999,0 -43.294999,21.7370002 -48.296999,45.3670002 -5.0012,23.801 1.5515,44.675 31.567,44.504 0,0 23.678999,-0.0879 23.678999,-0.0879 0,0 22.131,-0.0806 22.131,-0.0806 0.85205,-0.007 1.7236,-0.6836 1.9409,-1.5064 0,0 3.855,-14.705 3.855,-14.705 0.21485,-0.8252 -0.30639,-1.5039 -1.1584,-1.5088 0,0 -3.6951,-0.022 -3.6951,-0.022 0,0 -3.6938,-0.022 -3.6938,-0.022 -0.7251,-0.005 -1.1401,-0.47364 -1.0522,-1.0962 0.0159,-0.11225 0.0415,-0.22705 0.0904,-0.34668 z"
     id="path3293"
     style="fill:#ffffff;fill-rule:nonzero"
     inkscape:connector-curvature="0" />
  <path
     d="m 282.06369,65.746835 c 0,0.56153 -0.45532,1.0181 -1.0181,1.0181 -0.56152,0 -1.0181,-0.45654 -1.0181,-1.0181 0,-0.56152 0.45655,-1.0156 1.0181,-1.0156 0.56274,0 1.0181,0.4541 1.0181,1.0156 z"
     id="path3295"
     style="fill:#ffffff;fill-rule:nonzero"
     inkscape:connector-curvature="0" />
</svg>
